PathFileType	4	(X/Y/Z)	0_1_22_p0_0-274.trc
DataRate	CameraRate	NumFrames	NumMarkers	Units	OrigDataRate	OrigDataStartFrame	OrigNumFrames
60	60	6	27	m	60	239	274
Frame#	Time	RHip			RKnee			RAnkle			RBigToe			RSmallToe			RHeel			LHip			LKnee			LAnkle			LBigToe			LSmallToe			LHeel			Neck			Head			Nose			RShoulder			RElbow			RWrist			RThumb			RIndex			RPinky			LShoulder			LElbow			LWrist			LThumb			LIndex			LPinky		
		X1	Y1	Z1	X2	Y2	Z2	X3	Y3	Z3	X4	Y4	Z4	X5	Y5	Z5	X6	Y6	Z6	X7	Y7	Z7	X8	Y8	Z8	X9	Y9	Z9	X10	Y10	Z10	X11	Y11	Z11	X12	Y12	Z12	X13	Y13	Z13	X14	Y14	Z14	X15	Y15	Z15	X16	Y16	Z16	X17	Y17	Z17	X18	Y18	Z18	X19	Y19	Z19	X20	Y20	Z20	X21	Y21	Z21	X22	Y22	Z22	X23	Y23	Z23	X24	Y24	Z24	X25	Y25	Z25	X26	Y26	Z26	X27	Y27	Z27
240	4.0	0.10489357734037794	0.24119420244402917	0.057487260051029776	0.10423809425019762	0.2390703891861567	-0.3887524498038781	0.14978334219416806	0.21623561071639114	-0.7957277277597529	0.1700859594784639	0.07773942091644793	-0.8026512952677094	0.09692302600375513	0.09066222630005266	-0.8032978491755595	0.1653436699204809	0.2271754821190333	-0.831256155772457	0.3019370795044342	0.27327146687866904	0.048069878095754276	0.3219705721743321	0.25803673679168715	-0.4004771467252551	0.35338308161954524	0.23976325645140278	-0.8240403223992757	0.32493107715410857	0.05650840065219372	-0.7866920102811412	0.3767921067525851	0.11772025996497643	-0.8153881276701012	0.3451359273340871	0.28641522421021043	-0.8827332795794214	0.2022825133374468	0.28976126256747714	0.521666124009094	0.18418133540943019	0.18273029903130977	0.7943604909440933	0.18204584314122554	0.1500080319393959	0.6461054368457323	0.03698758629939724	0.2524991100838404	0.4878924313875873	-0.010476170185432187	0.286933150762968	0.221455455971233	0.013124132868367742	0.19136016770843572	-0.0029669246280029657	0.09514910515093589	0.15589407416891296	-0.10087778739216474	0.0737354461951309	0.11469553898271799	-0.11061695769544284	0.01279917038803641	0.19257005461178175	-0.13700459515930452	0.351172854976573	0.2398653364709068	0.48755901295341236	0.4006585356230547	0.2817614469239381	0.21401952769225946	0.35426469887056694	0.1424395286742326	0.014432729774885945	0.31693235584130525	0.12410771439431442	-0.07019700231368409	0.3331077097548356	0.12244292719538272	-0.09681965132581613	0.35922271961016194	0.12107384673060481	-0.09638194200391541
241	4.016666666666667	0.10488206064100261	0.24118944687469782	0.057091152900297544	0.10446942222701817	0.2345239981370799	-0.3873567126559814	0.14834461820707856	0.21683812491247986	-0.796507504732928	0.16962185240370745	0.07793841317992924	-0.8031688514119315	0.0975262982543803	0.08836091474333133	-0.8015515426112079	0.16430655006150274	0.2277059919063852	-0.8300550892795979	0.3017815886612349	0.27363976390182737	0.04746361310198258	0.32179059326121584	0.2573510998337554	-0.39958447308026657	0.3532768205943537	0.24092096591160567	-0.8254054302872836	0.3239319103240537	0.05703413259204505	-0.7869790651543616	0.37726178782229236	0.11431560798125556	-0.813398144601983	0.3451906301578847	0.2864982015469825	-0.8824852771947445	0.2022429379264011	0.2898361071547063	0.5220588401262974	0.1841836500371363	0.18271934560720116	0.7943564238967489	0.1828524471970009	0.1511776300758746	0.646518897189365	0.03698382111489691	0.25240421352897463	0.4878854468877728	-0.010252294311525011	0.28568933626628307	0.22017859596497016	0.01417476981141873	0.1885332944111796	-0.0023630132908358595	0.0974865854011682	0.15609004795846204	-0.0992900586837946	0.0773258038799204	0.11785898128306102	-0.11087853419229743	0.015322145090238881	0.19041446153835906	-0.1365501727480538	0.3520017055998765	0.24210643749819186	0.48698623961145776	0.4012375485636253	0.28145069547432633	0.21474998946265478	0.35418274720531956	0.14283294273408084	0.015776177938356086	0.31237449383799415	0.11482826039152692	-0.06220089895129523	0.3314855145244539	0.1181919919195432	-0.09312069164870952	0.35645859764096044	0.11974232815226477	-0.09368702299613009
242	4.033333333333333	0.10493376946710828	0.24092620968799097	0.05655094167096873	0.10323678194275335	0.2350703917209808	-0.3890930414362477	0.1472074553953147	0.2173594909920205	-0.7969131577176208	0.16942540122484462	0.07794174763227438	-0.8032178187277774	0.09747875001077563	0.08848453028802303	-0.8015379548268516	0.16380384027711412	0.2268825247065473	-0.8282650751592102	0.30145071754279495	0.2748650616988919	0.04680251018962097	0.3217520187298201	0.256975693937751	-0.3985259223870896	0.3528760498098886	0.24336639786368197	-0.8271363583085675	0.3229671897413805	0.057582567445452135	-0.7872594821964669	0.3767327783193112	0.11307306770409481	-0.8124184732892188	0.34517902711586856	0.2863444931670775	-0.8827438897620474	0.20222581723553132	0.29022803291122057	0.5232780469877442	0.18423046858432587	0.18270433363857308	0.7946554421016419	0.18346677639401113	0.1510796627487549	0.6470461029897844	0.037004866010352966	0.25224758922089624	0.4878979141875541	-0.009975849179382514	0.28415356182140006	0.21974754029145743	0.015282137222871238	0.18736075902316204	-0.002494801917215117	0.10008570232512985	0.1537665511918917	-0.09737174368441154	0.08141551328660823	0.12305890524004048	-0.11233171693568042	0.02140781528576711	0.18551239885375748	-0.13485638610179881	0.3529006597473189	0.24440981927318461	0.48639975824934545	0.4028875877039507	0.2820572774392207	0.2152903886152926	0.35427868639229954	0.14366361502754965	0.01761596899079066	0.30738514137889333	0.10699435368693892	-0.0545018029283861	0.3297855063219668	0.11390955457884688	-0.08983691746861115	0.35563522056204233	0.11678463743771933	-0.0900460783694019
243	4.05	0.10505974952654974	0.240463035032989	0.0561927719745904	0.10165362405921893	0.2395212402943279	-0.3926740507827299	0.14672916364647753	0.21765231453459566	-0.7970605752897614	0.16942257113258846	0.07785002659286494	-0.803073455516832	0.09680766543310479	0.09100379445479534	-0.8033669775893346	0.16361274133220352	0.2264244943875369	-0.8274721225985068	0.301193456407888	0.27639679759532526	0.04630759887106309	0.32177080763425303	0.25700634052205656	-0.3979630191369573	0.3524546218764016	0.24584797972617556	-0.8287586437092203	0.32250960547959506	0.0578598956372811	-0.7873954132886695	0.37523231218788383	0.11386801774341519	-0.8125778945665931	0.3451297842219914	0.2861327630838584	-0.8832439006380194	0.20222795215977665	0.2908451409220723	0.5253897922352182	0.1842932968066725	0.18281581834821262	0.7955153209366014	0.18378551955172878	0.15081854412773324	0.6476283756780628	0.037039537617754664	0.25214768653697905	0.48789515501464237	-0.008811144582259412	0.2799474946996565	0.22080204531323272	0.017386304255429672	0.18584597675243356	-0.002450441423094625	0.10352873116341918	0.15080906558061052	-0.09641392819591658	0.08508376962690742	0.12732264136997673	-0.1138919951238451	0.031070246027214293	0.17464173507391767	-0.1309398974990542	0.3537034238123395	0.24635357518453715	0.48590701447881074	0.4056777267547103	0.28462904511726395	0.21563967817619137	0.3543642728807562	0.14458168704585997	0.020071552483434403	0.3032237203285355	0.10078434818478618	-0.047910029645716626	0.3275584764730618	0.10857584850924587	-0.08663874090346374	0.3565257626264211	0.11074364814520307	-0.08530776995639773
244	4.066666666666666	0.10510151548122224	0.24045752346691318	0.05604481131319486	0.1012211825906172	0.24613678180225307	-0.39697341129898417	0.14664894716891538	0.217875125854671	-0.7970310113261021	0.1694750388137367	0.07775910951340538	-0.802942220713105	0.09643049159140135	0.09261148309916599	-0.8048592314962411	0.16332068356961144	0.22739461759350268	-0.8281716457695396	0.3014843674704158	0.2772079178058144	0.04657288721229151	0.32223337616111997	0.2585164406826402	-0.39909920399896687	0.3522637070600203	0.2468783940989598	-0.8292944009791807	0.32245940964224584	0.05790313942050115	-0.7874190556461543	0.3737568161176393	0.11504954975773804	-0.8128722659520644	0.34509002761489455	0.2860553634195595	-0.8835768766091092	0.2022442201264363	0.2914507787536894	0.5275337253022906	0.18426288426356108	0.18335545385359941	0.7968964776842067	0.18388389242957975	0.15089903496307566	0.6484987329927431	0.03701149279296432	0.2524524256686588	0.48778417654906564	-0.006729353207516646	0.2728212493326725	0.2227784709269739	0.02160871048746366	0.1809781059411835	-0.0012731941457973309	0.10796284106407347	0.14807481853882473	-0.09654357837503681	0.08804924111063471	0.12805815100144613	-0.114790714752997	0.042192250072612306	0.15769126505047662	-0.12516442530219	0.3541066944081421	0.2473070201901924	0.48566966049843396	0.4085522153357462	0.2873343613375205	0.2164535377422911	0.35443894811897897	0.14534173017489635	0.022431079183956665	0.30009467614838253	0.09515492025748931	-0.042347261882904594	0.324428296443701	0.10124757624083175	-0.08274462014710388	0.35762443184468395	0.1025818595664218	-0.08032234633668087
245	4.083333333333333	0.10454444878755167	0.242718927163054	0.05510541892796058	0.10175153109210322	0.254000324652646	-0.40198687132935274	0.1466059692878554	0.21816518915716254	-0.7967140581006804	0.16949082839234086	0.07783014104399595	-0.8029744518652375	0.09699341435903377	0.09094257437627412	-0.8043612001236717	0.16285336179926632	0.22938389861317093	-0.8296622216345337	0.30236574723590165	0.2778815923215751	0.04732375292014828	0.3230932818831405	0.2610745167104699	-0.40177268235475105	0.35235164382128176	0.2459574860656744	-0.8281804373266131	0.32254376707696925	0.05787570357626598	-0.7874276784010049	0.37316030302755965	0.1161456975662937	-0.8129065828781492	0.34507409668448125	0.2860853909102605	-0.8836667926922782	0.20225898025076547	0.29182733429703583	0.5288114940392015	0.1839156999693083	0.1849324044757965	0.7983620554932108	0.1839047282748011	0.15133186358316064	0.6498299617225652	0.03677967554944229	0.25362400822512093	0.48744466732833036	-0.004505349049649682	0.2651781880081097	0.2242512127599231	0.02856939763345352	0.17115697420781328	0.0014650628417876685	0.11320777077804156	0.1431622025536364	-0.09603870726849545	0.09031944809058591	0.1253192788244327	-0.11522830561149991	0.0519810150492965	0.13814398558701388	-0.11885080267894504	0.35416639352675955	0.24745740255648618	0.4856380158835353	0.4111423429326684	0.28810395656525706	0.2178005623386746	0.35441832445855986	0.14551948653643745	0.0245958431118422	0.29702412488835434	0.08928539102827127	-0.03697892346475169	0.3201121036713169	0.09148322001928057	-0.07763520384944522	0.35729911839288786	0.09537977856797089	-0.07657505236445868
